# xmcd
#
# Track frame offsets: 
#        150
#        19256
#        39013
#        58518
#        77898
#        97277
#        112654
#        131296
#        157258
#        175257
#
# Disc length: 2553 seconds
#
# Revision: 0
# Processed by: cddbd v1.5.2PL0 Copyright (c) Steve Scherf et al.
# Submitted via: ExactAudioCopy v1.0b1
#
DISCID=7809f70a
DTITLE=Grinder Blues - Grinder Blues
DYEAR=2014
DGENRE=Blues
TTITLE0=Don't Go Home
TTITLE1=Wild One
TTITLE2=Burn The Bridge
TTITLE3=Grinders Blues
TTITLE4=Train
TTITLE5=Worried Mind
TTITLE6=It Ain't Easy
TTITLE7=Woke Up This Morning
TTITLE8=Chuck Berry
TTITLE9=TX to CA
EXTD=
EXTT0=
EXTT1=
EXTT2=
EXTT3=
EXTT4=
EXTT5=
EXTT6=
EXTT7=
EXTT8=
EXTT9=
PLAYORDER=
